<svg xmlns="http://www.w3.org/2000/svg" viewBox="0 0 64 64">
  <defs>
    <linearGradient id="mangoFill" x1="0" y1="0" x2="1" y2="1">
      <stop offset="0%" stop-color="#ffe07a" />
      <stop offset="55%" stop-color="#f4ab25" />
      <stop offset="100%" stop-color="#d47b00" />
    </linearGradient>
    <linearGradient id="leafFill" x1="0" y1="0" x2="1" y2="1">
      <stop offset="0%" stop-color="#2d7a3f" />
      <stop offset="100%" stop-color="#1f5d2f" />
    </linearGradient>
  </defs>

  <path
    d="M36 13c-7 0-13 5-16 11-4 7-3 18 3 25 4 5 10 8 16 8 10 0 18-9 18-20 0-14-10-24-21-24z"
    fill="url(#mangoFill)"
    stroke="#9a5a00"
    stroke-width="2"
  />
  <path
    d="M24 20c2-6 6-11 13-12"
    fill="none"
    stroke="#9a5a00"
    stroke-width="2"
    stroke-linecap="round"
  />
  <path
    d="M35 8c5-4 11-4 16-1-4 3-7 6-10 11-3-2-5-5-6-10z"
    fill="url(#leafFill)"
    stroke="#1f5d2f"
    stroke-width="1.5"
  />
  <circle cx="44" cy="41" r="2.5" fill="#fff4d1" opacity="0.55" />
</svg>
